HIERARCHY
ROOT Hips
{
	OFFSET 0.000000 0.000000 0.000000
	CHANNELS 6 Xposition Yposition Zposition Xrotation Yrotation Zrotation
	JOINT LeftUpLeg_virtual
	{
		OFFSET 0.000000 0.000000 0.000000
		CHANNELS 3 Xrotation Yrotation Zrotation
		JOINT LeftUpLeg
		{
			OFFSET 11.394100 -6.187798 -0.413800
			CHANNELS 3 Xrotation Yrotation Zrotation
			JOINT LeftLeg
			{
				OFFSET 0.430247 -32.302673 3.732800
				CHANNELS 3 Xrotation Yrotation Zrotation
				JOINT LeftFoot
				{
					OFFSET -0.430247 -48.264931 -6.423300
					CHANNELS 3 Xrotation Yrotation Zrotation
					JOINT LeftToeBase
					{
						OFFSET 4.230900 -16.068199 23.438400
						CHANNELS 3 Xrotation Yrotation Zrotation
						JOINT LeftToe_End
						{
							OFFSET 4.510700 0.695400 19.974600
							CHANNELS 3 Xrotation Yrotation Zrotation
							End Site
							{
								OFFSET 0 0 0
							}
						}
					}
				}
			}
		}
	}
	JOINT RightUpLeg_virtual
	{
		OFFSET 0.000000 0.000000 0.000000
		CHANNELS 3 Xrotation Yrotation Zrotation
		JOINT RightUpLeg
		{
			OFFSET -11.333700 -6.187798 -0.413800
			CHANNELS 3 Xrotation Yrotation Zrotation
			JOINT RightLeg
			{
				OFFSET -0.430392 -32.302628 3.733000
				CHANNELS 3 Xrotation Yrotation Zrotation
				JOINT RightFoot
				{
					OFFSET 0.430392 -48.264973 -6.423500
					CHANNELS 3 Xrotation Yrotation Zrotation
					JOINT RightToeBase
					{
						OFFSET -4.230900 -16.068199 23.438400
						CHANNELS 3 Xrotation Yrotation Zrotation
						JOINT RightToe_End
						{
							OFFSET -4.510700 0.695400 19.974600
							CHANNELS 3 Xrotation Yrotation Zrotation
							End Site
							{
								OFFSET 0 0 0
							}
						}
					}
				}
			}
		}
	}
	JOINT Spine_virtual
	{
		OFFSET 0.000000 0.000000 0.000000
		CHANNELS 3 Xrotation Yrotation Zrotation
		JOINT Spine
		{
			OFFSET -0.002400 12.777504 0.315300
			CHANNELS 3 Xrotation Yrotation Zrotation
			JOINT Spine1
			{
				OFFSET -0.002067 5.816869 0.032633
				CHANNELS 3 Xrotation Yrotation Zrotation
				JOINT Spine1_split
				{
					OFFSET -0.002067 5.816869 0.032633
					CHANNELS 3 Xrotation Yrotation Zrotation
					JOINT Spine2
					{
						OFFSET -0.002067 5.816869 0.032633
						CHANNELS 3 Xrotation Yrotation Zrotation
						JOINT Neck_virtual
						{
							OFFSET 0.000000 0.000000 0.000000
							CHANNELS 3 Xrotation Yrotation Zrotation
							JOINT Neck
							{
								OFFSET -0.003700 21.199493 -0.826900
								CHANNELS 3 Xrotation Yrotation Zrotation
								JOINT Head
								{
									OFFSET 0.000000 20.442200 4.834800
									CHANNELS 3 Xrotation Yrotation Zrotation
									JOINT HeadTop_End
									{
										OFFSET 0.000000 34.668396 4.968400
										CHANNELS 3 Xrotation Yrotation Zrotation
										End Site
										{
											OFFSET 0 0 0
										}
									}
								}
							}
						}
						JOINT LeftShoulder_virtual
						{
							OFFSET 0.000000 0.000000 0.000000
							CHANNELS 3 Xrotation Yrotation Zrotation
							JOINT LeftShoulder
							{
								OFFSET 3.288150 8.794197 -1.372250
								CHANNELS 3 Xrotation Yrotation Zrotation
								JOINT LeftShoulder_split
								{
									OFFSET 3.288150 8.794197 -1.372250
									CHANNELS 3 Xrotation Yrotation Zrotation
									JOINT LeftArm
									{
										OFFSET 11.953299 -2.279007 -0.146200
										CHANNELS 3 Xrotation Yrotation Zrotation
										JOINT LeftForeArm
										{
											OFFSET 18.448900 0.000000 0.000000
											CHANNELS 3 Xrotation Yrotation Zrotation
											JOINT LeftHand
											{
												OFFSET 29.527798 0.000000 0.000000
												CHANNELS 3 Xrotation Yrotation Zrotation
												End Site
												{
													OFFSET 0 0 0
												}
											}
										}
									}
								}
							}
						}
						JOINT RightShoulder_virtual
						{
							OFFSET 0.000000 0.000000 0.000000
							CHANNELS 3 Xrotation Yrotation Zrotation
							JOINT RightShoulder
							{
								OFFSET -3.249400 8.794197 -1.372250
								CHANNELS 3 Xrotation Yrotation Zrotation
								JOINT RightShoulder_split
								{
									OFFSET -3.249400 8.794197 -1.372250
									CHANNELS 3 Xrotation Yrotation Zrotation
									JOINT RightArm
									{
										OFFSET -11.953299 -2.279007 -0.146200
										CHANNELS 3 Xrotation Yrotation Zrotation
										JOINT RightForeArm
										{
											OFFSET -18.448900 0.000000 0.000000
											CHANNELS 3 Xrotation Yrotation Zrotation
											JOINT RightHand
											{
												OFFSET -29.527802 0.000000 0.000000
												CHANNELS 3 Xrotation Yrotation Zrotation
												End Site
												{
													OFFSET 0 0 0
												}
											}
										}
									}
								}
							}
						}
					}
				}
			}
		}
	}
}
MOTION
Frames: 4
Frame Time: 0.03333333
-5.324212 110.550987 179.399887 0.000000 0.000000 0.000000 19.728175 5.014867 2.334432 -26.622341 13.090533 10.170523 45.977227 14.584250 4.752353 22.777387 -0.105966 3.657747 9.659584 3.261959 -10.114829 0.000000 0.000000 0.000000 19.277393 11.177224 1.644505 -57.428736 -17.851898 -9.631546 39.301984 -3.203265 -12.060746 48.741859 1.495267 -1.319491 -20.383982 1.478439 1.288181 0.000000 0.000000 0.000000 18.035613 3.245120 3.522389 0.969999 0.188373 -0.046990 -3.969063 -0.196756 -0.007107 0.492622 -1.278486 0.283903 0.000000 0.000000 0.000000 -1.601407 -0.024291 -0.912927 -10.992712 0.184601 -7.419774 -25.566117 8.020571 2.248337 0.000000 0.000000 0.000000 -4.483544 0.104089 0.239625 10.593955 -4.658979 31.247009 5.071685 6.587879 -0.939889 -50.303776 -16.587997 12.307020 -40.028279 -42.971766 -7.846770 0.000000 0.000000 0.000000 -3.722422 0.214936 0.009414 -3.736867 -18.319930 -38.617842 5.146070 3.068109 3.493590 -100.870331 11.907810 44.093864 -33.060660 55.314116 2.361791 0.000000 0.000000 0.000000 
-5.307420 106.482391 186.873535 0.000000 0.000000 0.000000 15.973454 6.352373 1.700662 -27.116087 12.298860 12.151187 48.683891 14.733814 2.344119 20.051385 0.385388 2.750088 9.914616 3.445537 -16.024010 0.000000 0.000000 0.000000 15.561439 12.983377 1.092983 -59.267320 -17.755709 -10.081321 41.609724 -0.345528 -12.260675 44.673976 0.056627 -1.904251 -24.401168 0.359376 2.364534 0.000000 0.000000 0.000000 14.224936 5.137377 2.619375 2.239167 -0.260632 -0.184242 -3.987712 -0.744088 0.292511 0.795141 -0.312734 0.253494 0.000000 0.000000 0.000000 -1.776290 -0.354217 -1.001408 -8.622468 0.274415 -6.949844 -27.288549 7.022140 3.258038 0.000000 0.000000 0.000000 -4.936813 -0.238498 0.189420 10.479480 -4.277075 32.535521 4.446601 7.036367 -1.294805 -48.312950 -13.223448 14.829662 -40.834259 -40.646210 -6.905889 0.000000 0.000000 0.000000 -3.948957 -0.019712 0.136939 -4.683202 -19.032682 -40.862006 4.963584 2.458864 3.912008 -97.478759 14.196529 39.608861 -30.415867 51.290117 -4.093681 0.000000 0.000000 0.000000 
-5.506275 103.087128 193.666718 0.000000 0.000000 0.000000 11.850367 7.830641 0.923195 -27.975591 13.203843 13.401133 49.544741 14.649137 0.777061 14.524431 0.433919 2.868484 7.846603 3.739809 -18.658876 0.000000 0.000000 0.000000 11.634531 14.980710 0.439359 -58.608856 -19.439582 -10.636461 41.362277 1.507961 -11.931819 41.195135 -1.567043 -2.664118 -24.859061 -0.854221 4.074082 0.000000 0.000000 0.000000 10.049124 7.045942 1.563087 3.348051 -0.562283 -0.044970 -3.863521 -1.436338 0.583903 1.127746 0.332412 0.167421 0.000000 0.000000 0.000000 -1.979823 -0.868013 -0.993444 -5.993751 0.483375 -6.138105 -27.344854 5.841527 4.488907 0.000000 0.000000 0.000000 -5.195593 -0.767809 0.069114 10.550667 -3.856598 33.807941 4.073937 6.818841 -1.606443 -45.370614 -8.799139 16.667431 -41.327760 -39.024122 -6.058770 0.000000 0.000000 0.000000 -4.128361 -0.469716 0.291749 -4.853319 -19.282119 -41.812974 4.591858 1.599689 3.880454 -92.111228 15.866347 34.862051 -30.435002 49.387927 -6.731218 0.000000 0.000000 0.000000 
-5.908827 100.891640 200.121338 0.000000 0.000000 0.000000 7.994377 9.253705 0.168849 -28.232628 15.640273 13.469095 47.412117 13.772440 0.470277 7.308594 -0.513801 3.254639 3.805200 4.017539 -17.228457 0.000000 0.000000 0.000000 7.853237 17.066583 -0.159787 -55.618569 -22.492105 -10.823738 37.967225 2.310268 -11.189827 36.925963 -3.351982 -4.147265 -20.383651 -1.534873 6.292805 0.000000 0.000000 0.000000 5.807426 8.797302 0.567786 4.078208 -0.720477 0.297309 -3.690617 -2.152522 0.820839 1.274826 0.174582 0.020910 0.000000 0.000000 0.000000 -2.198720 -1.478019 -0.909425 -2.881308 0.786868 -5.069498 -25.656193 4.710616 5.802855 0.000000 0.000000 0.000000 -5.307939 -1.395438 -0.058104 10.713764 -3.211855 35.068274 3.862108 6.180173 -1.791874 -42.502932 -4.369993 17.452875 -41.817775 -38.530398 -5.837916 0.000000 0.000000 0.000000 -4.296860 -1.062849 0.454436 -4.314558 -19.185224 -41.442928 4.386922 0.797689 3.524050 -85.842234 16.296917 30.287070 -32.445796 51.463085 -5.703498 0.000000 0.000000 0.000000 
